<?xml version="1.0" encoding="iso-8859-1"?>
<!-- Generator: Adobe Illustrator 16.0.0, SVG Export Plug-In . SVG Version: 6.00 Build 0)  -->
<!DOCTYPE svg PUBLIC "-//W3C//DTD SVG 1.1//EN" "http://www.w3.org/Graphics/SVG/1.1/DTD/svg11.dtd">
<svg version="1.1" id="Capa_1" xmlns="http://www.w3.org/2000/svg" xmlns:xlink="http://www.w3.org/1999/xlink" x="0px" y="0px"
	  viewBox="0 2 50 50" style="enable-background:new 0 0 100 100;"
	 xml:space="preserve">
<g>
	<g>
		<path d="M34.783,13.852c0-2.319-1.887-4.205-4.206-4.205s-4.204,1.886-4.204,4.205s1.886,4.205,4.205,4.205
			C32.896,18.057,34.783,16.171,34.783,13.852z M28.373,13.852c0-1.216,0.989-2.205,2.205-2.205c1.216,0,2.206,0.989,2.206,2.205
			c0,1.216-0.989,2.205-2.206,2.205C29.362,16.057,28.373,15.068,28.373,13.852z"/>
		<path d="M26.063,48.108c1.21,0.605,2.423,0.912,3.605,0.912c3.202,0,5.536-2.32,5.674-5.645c0.016-0.375-0.181-0.725-0.507-0.909
			c-0.325-0.185-0.729-0.171-1.043,0.034c-0.213,0.141-0.776,0.43-1.151,0.43c-0.246,0-0.297-0.505-0.297-0.928
			c0-0.988,1.41-7.534,2.276-11.342c0.106-0.328,2.543-8.057-2.171-10.414c-1.211-0.605-2.424-0.913-3.606-0.913
			c-3.202,0-5.535,2.32-5.673,5.643c-0.016,0.375,0.181,0.725,0.507,0.91c0.325,0.185,0.729,0.17,1.043-0.035
			c0.213-0.14,0.776-0.429,1.152-0.429c0.245,0,0.296,0.505,0.296,0.929c0,0.988-1.41,7.533-2.276,11.342
			C23.785,38.021,21.348,45.75,26.063,48.108z M25.818,38.224c0.392-1.718,2.349-10.367,2.349-11.872
			c0-2.718-1.757-2.929-2.296-2.929c-0.121,0-0.241,0.008-0.36,0.023c0.56-1.32,1.757-2.113,3.331-2.113
			c0.856,0,1.794,0.243,2.711,0.702c3.133,1.566,1.184,7.945,1.139,8.094C32.3,31.848,30.343,40.495,30.343,42
			c0,2.718,1.757,2.929,2.296,2.929c0.121,0,0.241-0.009,0.36-0.024c-0.56,1.321-1.757,2.114-3.332,2.114
			c-0.856,0-1.793-0.243-2.71-0.7C23.825,44.752,25.774,38.372,25.818,38.224z"/>
		<path d="M40.578,14.946C40.225,15.11,40,15.464,40,15.852v7.166c0,0.292,0.128,0.57,0.352,0.76l7.109,6.074l-7.109,6.074
			C40.128,36.116,40,36.394,40,36.686v7.166c0,0.389,0.225,0.742,0.578,0.906c0.135,0.062,0.279,0.094,0.422,0.094
			c0.23,0,0.459-0.08,0.643-0.234l16.668-14c0.226-0.189,0.356-0.47,0.356-0.766s-0.131-0.576-0.356-0.766l-16.668-14
			C41.346,14.837,40.93,14.781,40.578,14.946z M42,17.998l14.111,11.854L42,41.706v-4.559l7.648-6.535
			C49.872,30.422,50,30.144,50,29.852s-0.128-0.57-0.352-0.76L42,22.557V17.998z"/>
		<path d="M18.667,23.018v-7.166c0-0.389-0.225-0.742-0.578-0.906c-0.352-0.165-0.767-0.109-1.065,0.141l-16.667,14
			C0.131,29.277,0,29.557,0,29.853s0.131,0.576,0.357,0.767l16.667,14c0.184,0.153,0.412,0.233,0.643,0.233
			c0.144,0,0.288-0.03,0.422-0.094c0.353-0.164,0.578-0.519,0.578-0.906v-7.166c0-0.292-0.128-0.569-0.351-0.76l-7.11-6.074
			l7.11-6.074C18.539,23.588,18.667,23.31,18.667,23.018z M16.667,22.557l-7.649,6.535c-0.223,0.19-0.351,0.468-0.351,0.76
			s0.128,0.57,0.351,0.76l7.649,6.535v4.559L2.555,29.852l14.112-11.854V22.557z"/>
	</g>
</g>
<g>
</g>
<g>
</g>
<g>
</g>
<g>
</g>
<g>
</g>
<g>
</g>
<g>
</g>
<g>
</g>
<g>
</g>
<g>
</g>
<g>
</g>
<g>
</g>
<g>
</g>
<g>
</g>
<g>
</g>
</svg>
